# File created by Blade
# Date/Time:  Wed Jan 21 16:33:30 2015
# Frame Rate: 120.000 fps
#------------------------------------------------------
:FULLY-SPECIFIED
:DEGREES
1041
root 29.549668 5.202839 -24.987796 -129.286769 95.952745 -20.387113
Spine 22.023512 1.177185 -1.565875
Head 36.987209 0.708532 -0.894312
LeftShoulder -2.139675 -44.682041 18.692204
LeftArm 15.889146 -13.849357 -57.207055
LeftForeArm 17.189360 -0.000000 100.220507
LeftHand -6.764338 0.000000 46.007936
LeftHandThumb1 -26.253704 0.000000 33.147579
RightShoulder -2.832754 5.530420 -18.948354
RightArm 50.330713 27.657780 75.373645
RightForeArm -56.507849 0.000000 95.208316
RightHand -11.825467 0.000000 -39.686918
RightHandThumb1 -24.326973 -0.000000 -32.862282
LeftUpLeg -26.921981 -2.445732 8.030576
LeftLeg 151.960938 -0.000000 -0.000000
LeftFoot -36.207009 29.262907 -7.667270
LeftToeBase 25.649059 -0.000000 -0.000000
RightUpLeg -29.031303 23.627698 -19.118145
RightLeg 150.501501 -0.000000 -0.000000
RightFoot -32.127945 -26.758952 8.674759
RightToeBase 26.605603 -0.000000 -0.000000
1042
root 29.544621 5.196199 -25.006084 -128.000348 95.917123 -19.108288
Spine 22.118853 1.127615 -1.565700
Head 37.310398 0.615427 -1.067792
LeftShoulder -1.979458 -44.177852 18.354702
LeftArm 15.418243 -11.847552 -57.917028
LeftForeArm 16.247065 -0.000000 97.485409
LeftHand -6.741226 0.000000 43.620369
LeftHandThumb1 -26.253704 0.000000 33.147579
RightShoulder -2.829179 5.081075 -18.753963
RightArm 49.848500 25.654093 74.795144
RightForeArm -56.322560 -0.000000 92.360147
RightHand -12.331069 -0.000000 -37.730009
RightHandThumb1 -24.326973 -0.000000 -32.862282
LeftUpLeg -27.152048 -2.463502 7.945275
LeftLeg 151.885223 -0.000000 -0.000000
LeftFoot -35.555629 29.314956 -7.593964
LeftToeBase 26.034312 -0.000000 -0.000000
RightUpLeg -29.088408 23.820125 -19.089738
RightLeg 150.226757 -0.000000 -0.000000
RightFoot -31.647921 -26.759066 8.589954
RightToeBase 26.460644 -0.000000 -0.000000
1043
root 29.536168 5.202697 -25.030503 -126.875022 95.933646 -17.919986
Spine 22.259535 1.009104 -1.626559
Head 37.690430 0.671320 -1.162088
LeftShoulder -1.994039 -43.672494 18.177058
LeftArm 14.904819 -9.796017 -58.604030
LeftForeArm 15.135985 0.000000 94.606043
LeftHand -5.620462 0.000000 41.943461
LeftHandThumb1 -26.253704 0.000000 33.147579
RightShoulder -2.746086 4.830011 -18.668404
RightArm 49.218229 23.585720 74.251015
RightForeArm -55.627856 -0.000000 89.334644
RightHand -12.277243 -0.000000 -36.550379
RightHandThumb1 -24.326973 -0.000000 -32.862282
LeftUpLeg -27.215206 -2.416153 7.786885
LeftLeg 151.776816 -0.000000 -0.000000
LeftFoot -35.055550 29.377586 -7.644071
LeftToeBase 26.394369 -0.000000 -0.000000
RightUpLeg -29.090670 24.030527 -19.037862
RightLeg 149.835105 -0.000000 -0.000000
RightFoot -30.828206 -26.998398 8.418931
RightToeBase 26.201723 -0.000000 -0.000000
1044
root 29.520189 5.208674 -25.046484 -125.403027 95.808181 -16.503752
Spine 22.224147 0.860125 -1.473801
Head 38.173814 0.663471 -1.528697
LeftShoulder -1.839429 -42.968826 17.661208
LeftArm 14.674405 -7.930626 -59.188563
LeftForeArm 14.268890 -0.000000 91.544419
LeftHand -7.015639 -0.000000 38.414841
LeftHandThumb1 -26.253704 0.000000 33.147579
RightShoulder -2.850077 4.469910 -18.620464
RightArm 48.777561 21.428395 73.858035
RightForeArm -55.128408 -0.000000 86.510442
RightHand -12.424552 -0.000000 -34.729701
RightHandThumb1 -24.326973 -0.000000 -32.862282
LeftUpLeg -27.398534 -2.487850 7.805970
LeftLeg 151.664668 -0.000000 -0.000000
LeftFoot -34.636759 29.513253 -7.490015
LeftToeBase 26.912018 -0.000000 -0.000000
RightUpLeg -29.188225 24.203333 -18.850995
RightLeg 149.311628 -0.000000 -0.000000
RightFoot -29.881854 -27.118541 8.264140
RightToeBase 26.229616 -0.000000 -0.000000
1045
root 29.511471 5.215242 -25.072331 -124.394356 95.881128 -15.497263
Spine 22.267942 0.832388 -1.537089
Head 38.520098 0.773345 -1.643557
LeftShoulder -1.843526 -42.632798 17.474698
LeftArm 14.178379 -5.930482 -59.870007
LeftForeArm 13.680573 0.000000 88.320405
LeftHand -7.227108 -0.000000 35.824189
LeftHandThumb1 -26.253704 0.000000 33.147579
RightShoulder -2.932864 4.276965 -18.585557
RightArm 48.232495 19.316685 73.434554
RightForeArm -54.378614 -0.000000 83.471757
RightHand -12.164408 -0.000000 -32.959145
RightHandThumb1 -24.326973 -0.000000 -32.862282
LeftUpLeg -27.463977 -2.416074 7.647726
LeftLeg 151.561863 -0.000000 -0.000000
LeftFoot -34.307421 29.505637 -7.441707
LeftToeBase 27.156653 -0.000000 -0.000000
RightUpLeg -29.427951 24.600279 -18.959508
RightLeg 148.811935 -0.000000 -0.000000
RightFoot -28.658740 -27.092737 7.844072
RightToeBase 26.165310 -0.000000 -0.000000
1046
root 29.502087 5.226710 -25.088510 -123.301186 95.884330 -14.365575
Spine 22.330207 0.764864 -1.580313
Head 38.940834 0.787592 -1.768331
LeftShoulder -1.759642 -42.046898 17.241420
LeftArm 13.889472 -3.967390 -60.476080
LeftForeArm 13.073485 0.000000 85.064519
LeftHand -7.664164 -0.000000 33.616701
LeftHandThumb1 -26.253704 0.000000 33.147579
RightShoulder -2.987869 4.100693 -18.533340
RightArm 47.641997 17.239187 72.966863
RightForeArm -53.495988 0.000000 80.591895
RightHand -12.274646 0.000000 -30.733513
RightHandThumb1 -24.326973 -0.000000 -32.862282
LeftUpLeg -27.479336 -2.408112 7.601799
LeftLeg 151.488234 -0.000000 -0.000000
LeftFoot -34.144384 29.345341 -7.432848
LeftToeBase 27.539030 -0.000000 -0.000000
RightUpLeg -29.598851 25.073075 -18.854072
RightLeg 148.337658 -0.000000 -0.000000
RightFoot -27.230787 -26.826697 7.273208
RightToeBase 26.075137 -0.000000 -0.000000
